<?xml version="1.0" standalone="no"?><!DOCTYPE svg PUBLIC "-//W3C//DTD SVG 1.1//EN" "http://www.w3.org/Graphics/SVG/1.1/DTD/svg11.dtd"><svg class="icon" width="200px" height="200.00px" viewBox="0 0 1024 1024" version="1.1" xmlns="http://www.w3.org/2000/svg"><path d="M905.5 588.6H142.2c-12 0-21.7-9.6-21.7-21.5s9.7-21.5 21.7-21.5h719.3c-5.1-85.5-40.3-91.4-40.7-91.4l-129.7 0.1c-12 0-21.7-9.6-21.7-21.5s9.7-21.5 21.7-21.5h131.6c9.3 0.4 82.9 7.9 82.9 155.8v21.5z" fill="#231815" /><path d="M883.8 588.6H142.2c-12 0-21.7-9.6-21.7-21.5 0-147.9 73.5-155.4 81.9-155.8H477c12 0 21.7 9.6 21.7 21.5s-9.7 21.5-21.7 21.5H203.3c1 0-33.7 6.3-38.8 91.3h719.3c12 0 21.7 9.6 21.7 21.5s-9.7 21.5-21.7 21.5z" fill="#231815" /><path d="M476.9 454.5c-5 0-9.9-1.7-14-5.1-17.5-14.6-27.5-36-27.5-58.7 0-42.3 34.8-76.8 77.6-76.8s77.7 34.4 77.7 76.8c0 11.9-2.9 23.9-8.3 34.5-4.7 9.2-11.1 17.3-19 24-9.1 7.7-22.8 6.6-30.6-2.4-7.8-9-6.7-22.6 2.5-30.3 3.5-3 6.3-6.5 8.4-10.6 2.4-4.7 3.6-9.8 3.6-15.2 0-18.6-15.3-33.8-34.2-33.8-18.8 0-34.2 15.2-34.2 33.8 0 10 4.4 19.4 12.1 25.8 9.2 7.7 10.3 21.2 2.6 30.3-4.4 5.1-10.5 7.7-16.7 7.7z" fill="#231815" /><path d="M609.4 454.5l-60.2-0.1c-12 0-21.7-9.7-21.7-21.5s9.8-21.4 21.7-21.4h0.1l60.2 0.1c12 0 21.7 9.7 21.7 21.5-0.1 11.8-9.8 21.4-21.8 21.4z" fill="#231815" /><path d="M995.2 654.5H30.8s-43.5 184 93.3 67.6l51.6-0.9v180s2.7 102.1 86 100.3c83.3-1.8 251.3 0 251.3 0s168-1.8 251.3 0c83.3 1.8 86-100.3 86-100.3v-180l51.6 0.9c136.8 116.4 93.3-67.6 93.3-67.6z" fill="#138B8B" /><path d="M259.5 1023c-80.8 0-104.4-79-105.5-121.2V743.1l-21.8 0.4c-30 24.7-70.9 51.4-102.7 32.3-40.4-24.3-25.4-102.7-19.8-126.2C12 639.9 20.8 633 30.9 633h964.4c10.1 0 18.9 6.9 21.2 16.6 5.5 23.5 20.5 102-19.8 126.2-32 19.1-72.8-7.6-102.7-32.3l-22-0.5v158.1c-1.2 43.3-25.6 122.9-108.2 121.8-82-1.8-248.9 0-250.6 0-2.2 0-169-1.8-251 0-0.9 0.1-1.8 0.1-2.7 0.1z m103.3-43.8c74.3 0 149.3 0.8 150.4 0.8 1.2 0 168.8-1.8 251.5 0 61.4 2.2 63.8-76.1 63.8-79.4V721.2c0-5.8 2.3-11.3 6.5-15.3 4.1-4 9.6-6.5 15.6-6.2l51.6 0.9c5.1 0.1 10 1.9 13.8 5.2 44 37.5 57.8 33.3 57.9 33.2 6.2-3.7 8.1-31.9 3.3-63H48.7c-4.9 31.1-2.9 59.3 3.3 63 0.1 0 13.8 4.3 57.9-33.2 3.8-3.3 8.7-5.1 13.8-5.2l51.6-0.9c5.8-0.3 11.4 2.1 15.6 6.2 4.2 4 6.5 9.6 6.5 15.3v180c0.3 7.6 5 80.6 63.8 78.8 27.6-0.6 64.5-0.8 101.6-0.8zM699.1 275.6c-10 0-18.9-6.8-21.2-16.8-2.4-10.7 3.7-21.3 13.9-24.9 11.6-6.7 51.7-44.8 51.4-72.9 0-4.4-0.1-16.1-22.7-27.4-33.6-16.9-50.8-37.7-51.1-61.9C668.9 32.6 714.8 7 720 4.2c10.6-5.7 23.7-1.7 29.4 8.7 5.7 10.4 1.8 23.4-8.8 29.1-11.5 6.2-28 20.2-27.9 29.2 0.1 5.1 7.3 14.1 27.3 24.1 45.4 22.8 48.2 57 45.8 75.3-6.2 48.5-62.8 100.2-82.2 104.5-1.4 0.4-3 0.5-4.5 0.5z m-7.9-41.4z m3.2-1s-0.1 0 0 0c-0.1 0 0 0 0 0zM497.5 275.6c-10 0-18.9-6.8-21.2-16.8-2.4-10.7 3.7-21.3 13.9-24.9 11.6-6.7 51.7-44.8 51.4-72.9 0-4.4-0.1-16.1-22.7-27.4-33.6-16.9-50.8-37.7-51.1-61.9-0.5-39.1 45.4-64.7 50.6-67.5 10.6-5.7 23.7-1.7 29.4 8.7 5.7 10.4 1.8 23.4-8.8 29.1-11.5 6.2-28 20.2-27.9 29.2 0.1 5.1 7.3 14.1 27.3 24.1 45.4 22.8 48.2 57 45.8 75.3-6.2 48.5-62.8 100.2-82.2 104.5-1.4 0.4-3 0.5-4.5 0.5z m-7.9-41.4z m3.2-1zM312.3 275.6c-10 0-18.9-6.8-21.2-16.8-2.4-10.7 3.7-21.3 13.9-24.9 11.6-6.7 51.7-44.8 51.4-72.9 0-4.4-0.1-16.1-22.7-27.4-33.6-16.9-50.8-37.7-51.1-61.9C282.1 32.6 328 7 333.3 4.2c10.6-5.7 23.7-1.7 29.4 8.7 5.7 10.4 1.8 23.4-8.8 29.1-11.5 6.2-28 20.2-27.9 29.2 0.1 5.1 7.3 14.1 27.3 24.1 45.4 22.8 48.2 57 45.8 75.3-6.2 48.5-62.8 100.2-82.2 104.5-1.4 0.4-3 0.5-4.6 0.5z m-7.9-41.4z m3.2-1z" fill="#231815" /><path d="M297 900.3c-12 0-21.7-9.6-21.7-21.5V726.5c0-11.9 9.7-21.5 21.7-21.5s21.7 9.6 21.7 21.5v152.2c0.1 12-9.7 21.6-21.7 21.6z" fill="#231815" /></svg>