<?xml version="1.0" standalone="no"?><!DOCTYPE svg PUBLIC "-//W3C//DTD SVG 1.1//EN" "http://www.w3.org/Graphics/SVG/1.1/DTD/svg11.dtd"><svg class="icon" width="200px" height="199.80px" viewBox="0 0 1025 1024" version="1.1" xmlns="http://www.w3.org/2000/svg"><path fill="#ffffff" d="M942.491719 672.56241h-85.942465c0-7.667729-3.194887-15.01597-5.11182-22.683699l153.354585-76.677292a31.948872 31.948872 0 0 0-28.434496-57.188481L830.670667 587.8979A351.43759 351.43759 0 0 0 165.814645 672.56241H79.87218A79.87218 79.87218 0 0 0 0 751.156635a63.897744 63.897744 0 0 0 16.293925 42.491999L127.795487 919.2077v23.642166A79.87218 79.87218 0 0 0 207.667667 1024h607.028564a79.87218 79.87218 0 0 0 79.87218-79.87218v-23.642165l111.501563-125.559066a63.897744 63.897744 0 0 0 16.293924-43.769954A79.87218 79.87218 0 0 0 942.491719 672.56241z m-118.210826 0h-17.891368l15.974436-7.987218c0.319489 1.277955 1.277955 4.153353 1.916932 7.987218zM511.181949 416.971435a319.488718 319.488718 0 0 1 290.095756 186.581412l-28.434496 14.376992A287.539846 287.539846 0 0 0 230.990343 672.56241h-31.948872A319.488718 319.488718 0 0 1 511.181949 416.971435z m146.325833 255.590975a159.744359 159.744359 0 0 0-292.332177 0h-34.504782a191.693231 191.693231 0 0 1 356.54941-11.821083l-23.961654 11.821083zM511.181949 640.613538a95.846615 95.846615 0 0 0-70.926495 31.948872h-38.977624a127.795487 127.795487 0 0 1 220.127727 0h-39.297112A95.846615 95.846615 0 0 0 511.181949 640.613538z m0-127.795487a223.642103 223.642103 0 0 0-214.37693 159.744359h-31.948872a255.590975 255.590975 0 0 1 479.233078-40.575067l-28.434496 14.376992A223.642103 223.642103 0 0 0 511.181949 512.818051z m319.488718 383.386462v47.923307a15.974436 15.974436 0 0 1-15.974436 15.974436h-607.028564a15.974436 15.974436 0 0 1-15.974436-15.974436V896.204513l-127.795487-143.769923a15.974436 15.974436 0 0 1 15.974436-15.974436h862.619539a15.974436 15.974436 0 0 1 15.974436 15.974436zM255.590975 374.479436a15.974436 15.974436 0 0 0 30.351428-7.348241 16.293925 16.293925 0 0 0 0-3.833864 120.447247 120.447247 0 0 1 13.418526-92.33224 144.089412 144.089412 0 0 0 13.418526-116.613382 15.654947 15.654947 0 1 0-29.073473 11.182105c12.779549 29.073473 0 58.785924-13.738015 92.33224A146.325833 146.325833 0 0 0 255.590975 373.201481z"  /><path fill="#ffffff" d="M644.089256 370.006594a15.974436 15.974436 0 0 0 30.351428-7.348241 16.293925 16.293925 0 0 0 0-3.833864 120.447247 120.447247 0 0 1 13.418526-92.33224 144.089412 144.089412 0 0 0 13.418526-116.613382A15.654947 15.654947 0 1 0 670.926308 161.380461c12.779549 29.073473 0 58.785924-13.738015 92.332239a146.325833 146.325833 0 0 0-14.696481 114.69645zM479.233077 231.987468a15.974436 15.974436 0 0 0 31.948872-10.862617A120.447247 120.447247 0 0 1 523.32252 129.431589 144.089412 144.089412 0 0 0 536.741047 11.540252a15.654947 15.654947 0 1 0-29.073474 11.182105c12.779549 29.073473 0 58.785924-13.738015 92.33224A146.325833 146.325833 0 0 0 479.233077 230.709513z"  /></svg>