<?xml version="1.0" standalone="no"?><!DOCTYPE svg PUBLIC "-//W3C//DTD SVG 1.1//EN" "http://www.w3.org/Graphics/SVG/1.1/DTD/svg11.dtd"><svg class="icon" width="200px" height="200.00px" viewBox="0 0 1024 1024" version="1.1" xmlns="http://www.w3.org/2000/svg"><path fill="#ffffff" d="M793.9 291.4c6.1-38.9 12.5-97.5-24-123.4-27.9-19.7-81.6-15.7-85.1 25 0 0.1 0.1 0.2 0 0.4-0.3 1.1-0.6 2.2-0.6 3.5 1.1 33.2 10.2 64.4 20.6 95.7-18 6.3-34.6 15.8-48.1 28.3-6.7 6.2-2.9 14.4 3.4 17.7 19.6 22.5 51 39.6 80.9 35.1 23.3-3.6 59.4-10.1 78.5-28.9 11 19 15.1 42.9 18.1 66.5 5.7 45.2 5.9 89.1-8.6 133C794.6 648.4 728.7 721.4 627.2 763c-100.3 41.2-190.4 65.7-293.7 17.7-45.3-21-83.6-46.1-109.5-90-12.9-21.9-20.3-45.4-25.9-69.5 58.5 80.5 161 121.6 261.9 88.3 55.8-18.4 105.1-57.5 133.3-109.4 41.9-77.1-12.8-176.8 59.6-239 11.2-9.7-5.6-25.5-16.8-15.9-30.5 26.2-45.7 61.6-48.1 101.5-2 32.9 7.4 66.1 1.1 99-6.9 35.8-28.9 68.7-54.9 93.6-113.8 109.3-296.8 54.4-347.9-88.9-3.4-9.4-14.5-9.4-19.8-4.2-3.6 2.5-6 6.8-4.8 12.2 14.3 62.9 21.8 124.3 64.8 175.5 35.9 42.7 91.1 68.9 142.9 86.8 71 24.6 133.1 10 202.7-13.3 59.5-19.9 120.7-42.6 169.5-83.2 97.6-81.2 135.8-214.1 115.9-335.8-7.2-44.5-20.6-81.1-63.6-97zM752 184c14.4 8 18.3 22.4 21 37.2 4 21.5 1.7 43.1-1.6 64.5-14.5-2.2-29.5-1.7-44.2 1-9.8-29.4-18.9-58.9-19.9-90.2 0-0.4-0.2-0.7-0.3-1.1 0.3-0.9 0.7-1.7 0.8-2.8 1.6-18.5 34.3-14.1 44.2-8.6z m-20.5 167.8c-15.9 0.2-35-10.9-48.3-22.8 23.4-16.4 56.4-24.6 83.4-19.7 16.2 2.9 28.4 9 37.8 17.1-14.8 15.6-55.8 25.2-72.9 25.4z"  /><path fill="#ffffff" d="M634.8 587.4c-10.6 37-42.2 80.7-79.2 92.9-14.1 4.6-7.7 26.8 6.5 22.2 45.7-15.1 82.2-64 95.2-109.4 4-14.5-18.4-20-22.5-5.7z"  /></svg>