<?xml version="1.0" standalone="no"?><!DOCTYPE svg PUBLIC "-//W3C//DTD SVG 1.1//EN" "http://www.w3.org/Graphics/SVG/1.1/DTD/svg11.dtd"><svg class="icon" width="200px" height="200.00px" viewBox="0 0 1024 1024" version="1.1" xmlns="http://www.w3.org/2000/svg"><path fill="#ffffff" d="M718.216 923.867H310.808c-55.721 0-99.671-46.383-99.671-105.123V713.621c-8.771 0-17.589 3.089-20.498 6.178-14.68 15.445-32.269 21.622-49.858 21.622-11.726 0-20.498-6.178-29.315-12.356-11.726-15.445-8.771-77.323-8.771-77.323 2.909-37.116 26.36-40.205 52.722-40.205h715.19c23.452 0 49.858 6.227 49.858 43.295 0 61.877-5.909 71.095-8.818 74.233-5.863 9.316-17.589 12.356-29.315 12.356-17.589 0-35.133-6.178-49.813-21.622-2.909-3.089-11.726-6.178-20.498-6.178v105.123c5.866 58.74-41.039 105.123-93.805 105.123zM222.864 676.505h23.452v142.191c0 37.165 29.315 68.056 64.493 68.056h407.408c35.178 0 64.493-30.889 64.493-68.006V676.505h17.589c20.498 0 43.949 3.089 61.538 18.534 8.771 9.316 17.589 12.355 23.452 12.355h2.909c0-6.178 2.954-27.801 2.954-49.473v-6.178H155.463c-11.726 0-17.589 0-17.589 3.089v6.178c0 12.404 0 40.205 2.909 49.522h3c5.863 0 14.635-3.137 23.452-12.404 14.635-18.534 38.087-21.622 55.675-21.622h-0.046z m410.407-358.712c-6.125 0.159-11.808-3.429-14.68-9.267-5.863-9.316-2.909-18.534 5.909-24.712 52.722-37.116 40.995-64.966 23.406-108.261-8.771-18.534-17.589-43.295-2.909-64.917 2.909-9.316 14.635-12.355 23.452-6.178 8.771 6.178 8.771 15.445 5.863 24.712-2.954 6.178 0 18.583 5.863 34.028 17.589 43.295 40.995 98.945-35.178 151.507-5.908 3.088-8.817 3.088-11.726 3.088z m-134.847 0c-6.109 0.14-11.77-3.445-14.635-9.267-5.909-9.316-2.954-18.534 5.863-24.712 52.722-34.028 41.04-64.966 23.452-108.261-8.908-18.534-17.634-46.383-3-68.006 2.954-6.178 14.68-9.316 20.543-3.089 8.771 6.178 8.771 15.445 5.863 24.712-2.954 6.178 0 18.583 5.863 34.028 17.544 43.295 40.995 98.945-35.178 151.507-2.954 3.089-5.909 3.089-8.818 3.089h0.048v-0.001z m-143.62 0c-5.863 0-8.771-3.089-14.635-9.267-2.954-6.178-2.954-18.534 5.863-21.622 52.722-37.116 41.04-64.966 23.452-108.261-8.908-21.622-17.634-46.383-3-71.095 2.954-6.178 14.68-9.316 20.543-3.089 8.771 6.178 8.771 15.445 5.863 24.712-2.954 6.178 0 18.583 5.817 34.028 17.589 43.295 41.04 98.945-35.133 151.507-2.954 3.089-5.909 3.089-8.818 3.089h0.048v-0.002z m-23.453 371.068v114.39c0 12.404 8.818 18.583 17.589 18.583 11.726 0 17.589-9.316 17.589-18.583v-114.39c0-12.356-8.771-18.534-17.589-18.534-8.771 0-17.589 9.267-17.589 18.534z m486.581-129.883H211.138v-18.534c5.909-89.678 55.675-120.616 99.671-120.616H463.2l-8.771-27.801c-2.954-9.316 0-21.672 5.863-30.889 8.771-9.316 20.498-15.494 32.269-15.494h32.224c11.726 0 26.36 6.178 32.224 18.534 5.863 9.316 8.771 18.583 5.863 30.889l-5.863 24.761h161.209c43.949 0 90.898 30.938 99.67 120.616v18.534h0.044zM249.225 521.91h530.53c-8.771-43.295-29.315-68.056-61.538-68.056h-202.25l17.589-71.095h-38.132c-2.909 0-5.817 3.089-5.817 3.089l17.589 68.006H310.808c-32.269 0-55.721 24.761-61.583 68.056z"  /></svg>