<?xml version="1.0" standalone="no"?><!DOCTYPE svg PUBLIC "-//W3C//DTD SVG 1.1//EN" "http://www.w3.org/Graphics/SVG/1.1/DTD/svg11.dtd"><svg class="icon" width="200px" height="200.00px" viewBox="0 0 1024 1024" version="1.1" xmlns="http://www.w3.org/2000/svg"><path fill="#ffffff" d="M663.892992 348.16c-14.138368 0-25.6-11.461632-25.6-25.6V138.24c0-14.138368 11.461632-25.6 25.6-25.6s25.6 11.461632 25.6 25.6v184.32C689.492992 336.698368 678.032384 348.16 663.892992 348.16z"  /><path fill="#ffffff" d="M759.467008 348.16c-14.138368 0-25.6-11.461632-25.6-25.6V138.24c0-14.138368 11.461632-25.6 25.6-25.6s25.6 11.461632 25.6 25.6v184.32C785.067008 336.698368 773.605376 348.16 759.467008 348.16z"  /><path fill="#ffffff" d="M312.32 931.84c-56.46336 0-102.4-45.93664-102.4-102.4 0-1.777664 0.050176-3.628032 0.150528-5.499904 0.01024-0.193536 0.022528-0.387072 0.037888-0.581632l0.26624-3.494912c0.014336-0.187392 0.03072-0.37376 0.048128-0.561152l0.075776-0.709632c0.002048-0.023552 0.01536-0.13824 0.018432-0.161792l37.172224-342.023168c-27.558912-13.499392-51.970048-35.6352-70.0928-63.89248C155.198464 377.595904 143.36 335.86688 143.36 291.84c0-52.420608 16.985088-101.915648 47.827968-139.367424C223.217664 113.579008 266.236928 92.16 312.32 92.16s89.102336 21.419008 121.132032 60.312576C464.294912 189.924352 481.28 239.419392 481.28 291.84c0 44.02688-11.838464 85.755904-34.234368 120.675328-18.122752 28.25728-42.533888 50.393088-70.091776 63.89248l37.262336 342.889472c0.019456 0.18944 0.03584 0.377856 0.049152 0.567296l0.26624 3.495936c0.01536 0.193536 0.027648 0.387072 0.037888 0.580608 0.100352 1.871872 0.150528 3.72224 0.150528 5.499904C414.72 885.90336 368.78336 931.84 312.32 931.84zM261.184512 826.92608C261.141504 827.8016 261.12 828.6464 261.12 829.44c0 28.23168 22.96832 51.2 51.2 51.2s51.2-22.96832 51.2-51.2c0-0.794624-0.021504-1.639424-0.064512-2.51392l-0.231424-2.961408L323.972096 462.78656c-1.309696-12.053504 6.016-23.373824 17.549312-27.11552 24.305664-7.886848 46.476288-25.926656 62.426112-50.796544C421.044224 358.218752 430.08 326.047744 430.08 291.84c0-81.871872-52.827136-148.48-117.76-148.48s-117.76 66.608128-117.76 148.48c0 34.208768 9.0368 66.379776 26.13248 93.03552 15.950848 24.869888 38.121472 42.908672 62.427136 50.79552 11.533312 3.741696 18.859008 15.062016 17.549312 27.116544L261.39648 824.147968 261.184512 826.92608z"  /><path fill="#ffffff" d="M855.04 92.16c-14.138368 0-25.6 11.461632-25.6 25.6v204.8c0 53.219328-35.847168 99.996672-87.174144 113.755136-12.19584 3.268608-20.186112 14.941184-18.822144 27.493376l39.140352 360.15616 0.232448 2.960384c0.043008 0.87552 0.064512 1.72032 0.064512 2.515968 0 28.23168-22.96832 51.2-51.2 51.2s-51.2-22.96832-51.2-51.2c0-0.794624 0.021504-1.639424 0.064512-2.514944l0.211968-2.778112 39.16288-360.338432c0.785408-7.228416-1.54112-14.449664-6.396928-19.861504-3.367936-3.753984-7.734272-6.391808-12.519424-7.655424C629.726208 422.500352 593.92 375.74656 593.92 322.56V117.76c0-14.138368-11.461632-25.6-25.6-25.6s-25.6 11.461632-25.6 25.6v204.8c0 68.850688 41.844736 130.192384 104.087552 156.058624L609.875968 818.432c-0.002048 0.022528-0.01536 0.13824-0.018432 0.161792l-0.075776 0.709632c-0.018432 0.187392-0.034816 0.37376-0.048128 0.561152l-0.26624 3.494912c-0.01536 0.193536-0.027648 0.387072-0.037888 0.581632C609.330176 825.811968 609.28 827.662336 609.28 829.44c0 56.46336 45.93664 102.4 102.4 102.4s102.4-45.93664 102.4-102.4c0-1.777664-0.050176-3.628032-0.149504-5.499904-0.01024-0.193536-0.022528-0.387072-0.037888-0.580608l-0.26624-3.495936c-0.014336-0.18944-0.03072-0.37888-0.049152-0.567296L776.554496 478.6176C838.798336 452.752384 880.64 391.410688 880.64 322.56V117.76C880.64 103.621632 869.178368 92.16 855.04 92.16z"  /></svg>