<?xml version="1.0" standalone="no"?><!DOCTYPE svg PUBLIC "-//W3C//DTD SVG 1.1//EN" "http://www.w3.org/Graphics/SVG/1.1/DTD/svg11.dtd"><svg class="icon" width="200px" height="200.00px" viewBox="0 0 1024 1024" version="1.1" xmlns="http://www.w3.org/2000/svg"><path fill="#ffffff" d="M757.684 1015.956h-609.759c-15.393 0-27.877-12.489-27.877-27.877v0c0-15.393 12.489-27.877 27.877-27.877h609.759c15.393 0 27.877 12.489 27.877 27.877v0c0 15.442-12.489 27.877-27.877 27.877zM935.835 504.447c0-85.217-69.054-154.275-154.275-154.275-7.775 0-15.393 0.769-22.901 1.859h-661.457v329.904c0 131.385 106.512 237.898 237.898 237.898h222.512c131.385 0 237.898-106.512 237.898-237.898v-23.986c78.644-7.004 140.307-73.057 140.307-153.505zM795.521 606.197v-203.559c50.169 6.843 88.891 49.728 88.891 101.809 0 52.029-38.718 94.903-88.891 101.746zM330.507 287.74h-25.63c0-27.983 18.613-42.111 33.626-53.446s23.434-18.451 23.434-33.027-8.49-21.692-23.434-33.027c-15.007-11.338-33.626-25.471-33.626-53.446s18.674-42.066 33.626-53.394c14.956-11.338 23.434-18.451 23.434-32.908h25.63c0 27.932-18.613 42.066-33.626 53.394-15.007 11.338-23.434 18.451-23.434 32.973 0 14.563 8.49 21.692 23.434 33.027 15.007 11.338 33.626 25.471 33.626 53.446s-18.613 42.111-33.626 53.446c-15.007 11.285-23.434 18.402-23.434 32.973zM437.085 287.74h-25.63c0-27.983 18.613-42.111 33.626-53.446 15.007-11.338 23.434-18.451 23.434-33.027s-8.49-21.692-23.434-33.027c-15.007-11.338-33.626-25.471-33.626-53.446s18.674-42.066 33.626-53.394c14.956-11.338 23.434-18.451 23.434-32.908h25.63c0 27.932-18.613 42.066-33.626 53.394-15.007 11.338-23.434 18.451-23.434 32.973 0 14.563 8.49 21.692 23.434 33.027 15.007 11.338 33.626 25.471 33.626 53.446s-18.613 42.111-33.626 53.446c-14.956 11.285-23.434 18.402-23.434 32.973zM543.702 287.74h-25.686c0-27.983 18.613-42.111 33.626-53.446s23.434-18.451 23.434-33.027-8.49-21.692-23.434-33.027c-15.007-11.338-33.626-25.471-33.626-53.446s18.674-42.066 33.626-53.394c14.956-11.338 23.434-18.451 23.434-32.908h25.63c0 27.932-18.613 42.066-33.626 53.394-15.007 11.338-23.434 18.451-23.434 32.973 0 14.563 8.49 21.692 23.434 33.027s33.626 25.471 33.626 53.446-18.613 42.111-33.626 53.446-23.385 18.402-23.385 32.973z" /></svg>