<?xml version="1.0" standalone="no"?><!DOCTYPE svg PUBLIC "-//W3C//DTD SVG 1.1//EN" "http://www.w3.org/Graphics/SVG/1.1/DTD/svg11.dtd"><svg class="icon" width="200px" height="200.00px" viewBox="0 0 1024 1024" version="1.1" xmlns="http://www.w3.org/2000/svg"><path fill="#ffffff" d="M864 255.8H704c0-105.9-86.1-192-192-192s-192 86.1-192 192H160c-52.9 0-96 43.1-96 96v512c0 52.9 43.1 96 96 96h704c52.9 0 96-43.1 96-96v-512c0-53-43-96-96-96z m-352-128c70.6 0 128 57.4 128 128H384c0-70.6 57.5-128 128-128z m384 736c0 17.6-14.4 32-32 32H160c-17.6 0-32-14.4-32-32v-512c0-17.6 14.4-32 32-32h704c17.6 0 32 14.4 32 32v512zM640 575.8h-96v-96c0-17.6-14.4-32-32-32s-32 14.4-32 32v96h-96c-17.6 0-32 14.4-32 32s14.4 32 32 32h96v96c0 17.6 14.4 32 32 32s32-14.4 32-32v-96h96c17.6 0 32-14.4 32-32s-14.4-32-32-32z" /></svg>