<?xml version="1.0" standalone="no"?><!DOCTYPE svg PUBLIC "-//W3C//DTD SVG 1.1//EN" "http://www.w3.org/Graphics/SVG/1.1/DTD/svg11.dtd"><svg class="icon" width="200px" height="200.00px" viewBox="0 0 1024 1024" version="1.1" xmlns="http://www.w3.org/2000/svg"><path fill="#ffffff" d="M872.5 340.7c-1.7-1.7-4.6-1.7-6.3 0L851 355.9l-15.2-15.2c-1.7-1.7-4.6-1.7-6.3 0-1.7 1.7-1.7 4.6 0 6.3l15.2 15.2-15.2 15.2c-1.7 1.7-1.7 4.6 0 6.3 0.9 0.9 2 1.3 3.1 1.3s2.3-0.4 3.1-1.3l15.2-15.2 15.2 15.2c0.9 0.9 2 1.3 3.1 1.3s2.3-0.4 3.1-1.3c1.7-1.7 1.7-4.6 0-6.3l-15.2-15.2 15.2-15.2c2-1.7 2-4.6 0.2-6.3zM398.2 461.2c0.9 0.9 2 1.3 3.1 1.3s2.3-0.4 3.1-1.3l15.2-15.2 15.2 15.2c0.9 0.9 2 1.3 3.1 1.3s2.3-0.4 3.1-1.3c1.7-1.7 1.7-4.6 0-6.3l-15-15.2 15.2-15.2c1.7-1.7 1.7-4.6 0-6.3-1.7-1.7-4.6-1.7-6.3 0l-15.2 15.2-15.2-15.2c-1.7-1.7-4.6-1.7-6.3 0-1.7 1.7-1.7 4.6 0 6.3l15.2 15.2-15.2 15.2c-1.8 1.7-1.8 4.5 0 6.3zM126.3 694.5c0-16.3-13.3-29.6-29.6-29.6s-29.6 13.3-29.6 29.6 13.3 29.6 29.6 29.6 29.6-13.3 29.6-29.6z m-50.3 0c0-11.4 9.3-20.7 20.7-20.7s20.7 9.3 20.7 20.7c0 11.4-9.3 20.7-20.7 20.7S76 705.9 76 694.5zM825.9 653.1c-16.3 0-29.6 13.3-29.6 29.6s13.3 29.6 29.6 29.6 29.6-13.3 29.6-29.6-13.3-29.6-29.6-29.6z m0 50.3c-11.4 0-20.7-9.3-20.7-20.7 0-11.4 9.3-20.7 20.7-20.7 11.4 0 20.7 9.3 20.7 20.7 0 11.4-9.3 20.7-20.7 20.7zM292.7 280.3c16.3 0 29.6-13.3 29.6-29.6s-13.3-29.6-29.6-29.6-29.6 13.3-29.6 29.6 13.3 29.6 29.6 29.6z m0-50.3c11.4 0 20.7 9.3 20.7 20.7 0 11.4-9.3 20.7-20.7 20.7s-20.7-9.3-20.7-20.7c0-11.4 9.3-20.7 20.7-20.7zM193.4 373c2.5 0 4.5-2 4.5-4.5v-31.4c0-2.5-2-4.5-4.5-4.5s-4.5 2-4.5 4.5v31.4c0 2.5 2 4.5 4.5 4.5zM144.3 366.1l27.2 15.7c0.7 0.4 1.5 0.6 2.2 0.6 1.5 0 3-0.8 3.9-2.2 1.2-2.1 0.5-4.9-1.6-6.1l-27.2-15.7c-2.1-1.2-4.9-0.5-6.1 1.6-1.3 2.1-0.6 4.8 1.6 6.1zM144.7 419.8c0.8 0 1.5-0.2 2.2-0.6l27.2-15.7c2.1-1.2 2.9-4 1.6-6.1-1.2-2.1-4-2.9-6.1-1.6l-27.2 15.7c-2.1 1.2-2.9 4-1.6 6.1 0.9 1.4 2.4 2.2 3.9 2.2zM189.9 447.9c2.5 0 4.5-2 4.5-4.5V412c0-2.5-2-4.5-4.5-4.5s-4.5 2-4.5 4.5v31.4c0.1 2.5 2 4.5 4.5 4.5zM207.4 406.5l27.2 15.7c0.7 0.4 1.5 0.6 2.2 0.6 1.5 0 3-0.8 3.9-2.2 1.2-2.1 0.5-4.9-1.6-6.1l-27.2-15.7c-2.1-1.2-4.9-0.5-6.1 1.6-1.2 2.2-0.5 4.9 1.6 6.1zM211.4 385.4c0.8 0 1.5-0.2 2.2-0.6l27.2-15.7c2.1-1.2 2.9-4 1.6-6.1-1.2-2.1-4-2.9-6.1-1.6l-27.2 15.7c-2.1 1.2-2.9 4-1.6 6.1 0.9 1.4 2.4 2.2 3.9 2.2zM480.8 180.2c2.5 0 4.5-2 4.5-4.5v-31.4c0-2.5-2-4.5-4.5-4.5s-4.5 2-4.5 4.5v31.4c0.1 2.5 2.1 4.5 4.5 4.5zM431.7 173.3l27.2 15.7c0.7 0.4 1.5 0.6 2.2 0.6 1.5 0 3-0.8 3.9-2.2 1.2-2.1 0.5-4.9-1.6-6.1l-27.2-15.7c-2.1-1.2-4.9-0.5-6.1 1.6-1.3 2.2-0.5 4.9 1.6 6.1zM432.2 227.1c0.8 0 1.5-0.2 2.2-0.6l27.2-15.7c2.1-1.2 2.9-4 1.6-6.1-1.2-2.1-4-2.9-6.1-1.6L430 218.8c-2.1 1.2-2.9 4-1.6 6.1 0.7 1.4 2.2 2.2 3.8 2.2zM477.3 255.2c2.5 0 4.5-2 4.5-4.5v-31.4c0-2.5-2-4.5-4.5-4.5s-4.5 2-4.5 4.5v31.4c0.1 2.5 2.1 4.5 4.5 4.5zM494.9 213.8l27.2 15.7c0.7 0.4 1.5 0.6 2.2 0.6 1.5 0 3-0.8 3.9-2.2 1.2-2.1 0.5-4.9-1.6-6.1l-27.2-15.7c-2.1-1.2-4.9-0.5-6.1 1.6-1.3 2.1-0.6 4.9 1.6 6.1zM498.8 192.6c0.8 0 1.5-0.2 2.2-0.6l27.2-15.7c2.1-1.2 2.9-4 1.6-6.1-1.2-2.1-4-2.9-6.1-1.6l-27.2 15.7c-2.1 1.2-2.9 4-1.6 6.1 0.9 1.4 2.4 2.2 3.9 2.2zM292.7 866.3H103.5c-4.9 0-8.9 4-8.9 8.9s4 8.9 8.9 8.9h189.2c4.9 0 8.9-4 8.9-8.9 0-5-3.9-8.9-8.9-8.9zM603.6 866.3H329.1c-4.9 0-8.9 4-8.9 8.9s4 8.9 8.9 8.9h274.5c4.9 0 8.9-4 8.9-8.9 0-5-4-8.9-8.9-8.9zM741.6 866.3H636.2c-4.9 0-8.9 4-8.9 8.9s4 8.9 8.9 8.9h105.3c4.9 0 8.9-4 8.9-8.9 0.1-5-3.9-8.9-8.8-8.9zM803.9 866.3h-29.7c-4.9 0-8.9 4-8.9 8.9s4 8.9 8.9 8.9h29.7c4.9 0 8.9-4 8.9-8.9 0-5-4-8.9-8.9-8.9zM769.1 499c0.8 1.4 2.3 2.2 3.9 2.2 0.8 0 1.5-0.2 2.2-0.6l9.4-5.4V506c0 2.5 2 4.5 4.5 4.5s4.5-2 4.5-4.5v-10.9l9.4 5.4c0.7 0.4 1.5 0.6 2.2 0.6 1.5 0 3-0.8 3.9-2.2 1.2-2.1 0.5-4.9-1.6-6.1l-9.4-5.4 9.4-5.4c2.1-1.2 2.9-4 1.6-6.1-1.2-2.1-4-2.9-6.1-1.6l-9.4 5.4v-10.9c0-2.5-2-4.5-4.5-4.5s-4.5 2-4.5 4.5v10.9l-9.4-5.4c-2.1-1.2-4.9-0.5-6.1 1.6-1.2 2.1-0.5 4.9 1.6 6.1l9.4 5.4-9.4 5.4c-2.1 1.3-2.8 4-1.6 6.2zM954.7 610.5l-9.4-5.4 9.4-5.4c2.1-1.2 2.9-3.9 1.6-6.1-1.2-2.1-4-2.9-6.1-1.6l-9.4 5.4v-10.9c0-2.5-2-4.5-4.5-4.5s-4.5 2-4.5 4.5v10.9l-9.4-5.4c-2.1-1.2-4.9-0.5-6.1 1.6-1.2 2.1-0.5 4.9 1.6 6.1l9.4 5.4-9.4 5.4c-2.1 1.2-2.9 3.9-1.6 6.1 0.8 1.4 2.3 2.2 3.9 2.2 0.8 0 1.5-0.2 2.2-0.6l9.4-5.4v10.9c0 2.5 2 4.5 4.5 4.5s4.5-2 4.5-4.5v-10.9l9.4 5.4c0.7 0.4 1.5 0.6 2.2 0.6 1.5 0 3-0.8 3.9-2.2 1.2-2.1 0.5-4.9-1.6-6.1zM312.7 518.2c-1.2-2.1-4-2.9-6.1-1.6l-9.4 5.4v-10.9c0-2.5-2-4.5-4.5-4.5s-4.5 2-4.5 4.5V522l-9.4-5.4c-2.1-1.2-4.9-0.5-6.1 1.6-1.2 2.1-0.5 4.9 1.6 6.1l9.4 5.4-9.4 5.4c-2.1 1.2-2.9 4-1.6 6.1 0.8 1.4 2.3 2.2 3.9 2.2 0.8 0 1.5-0.2 2.2-0.6l9.4-5.4v10.9c0 2.5 2 4.5 4.5 4.5s4.5-2 4.5-4.5v-10.9l9.4 5.4c0.7 0.4 1.5 0.6 2.2 0.6 1.5 0 3-0.8 3.9-2.2 1.2-2.1 0.5-4.9-1.6-6.1l-9.4-5.4 9.4-5.4c2.1-1.2 2.8-3.9 1.6-6.1zM675.3 234.1c0.8 1.4 2.3 2.2 3.9 2.2 0.8 0 1.5-0.2 2.2-0.6l9.4-5.4v10.9c0 2.5 2 4.5 4.5 4.5s4.5-2 4.5-4.5v-10.9l9.4 5.4c0.7 0.4 1.5 0.6 2.2 0.6 1.5 0 3-0.8 3.9-2.2 1.2-2.1 0.5-4.9-1.6-6.1l-9.4-5.4 9.4-5.4c2.1-1.2 2.9-4 1.6-6.1-1.2-2.1-3.9-2.9-6.1-1.6l-9.4 5.4V204c0-2.5-2-4.5-4.5-4.5s-4.5 2-4.5 4.5v10.9l-9.4-5.4c-2.1-1.2-4.9-0.5-6.1 1.6-1.2 2.1-0.5 4.9 1.6 6.1l9.4 5.4-9.3 5.4c-2.2 1.3-2.9 4-1.7 6.1zM527.3 327.4c-3.9-3.1-9.5-2.4-12.5 1.4-1.3 1.6-30.7 39.3-8.9 69 18.6 25.4 18.1 36.8-2.9 60.8-3.2 3.7-2.9 9.3 0.8 12.6 1.7 1.5 3.8 2.2 5.9 2.2 2.5 0 4.9-1 6.7-3 26.6-30.5 27.6-50.6 3.9-83.1-13.8-18.8 8.2-47.2 8.5-47.5 3-3.7 2.4-9.3-1.5-12.4zM574 458.7c-3.2 3.7-2.9 9.3 0.8 12.6 1.7 1.5 3.8 2.2 5.9 2.2 2.5 0 4.9-1 6.7-3 26.6-30.5 27.6-50.6 3.8-83.1-13.8-18.8 8.2-47.2 8.5-47.5 3-3.8 2.4-9.4-1.4-12.5-3.9-3.1-9.4-2.4-12.5 1.4-1.3 1.6-30.7 39.3-8.9 69 18.6 25.6 18.1 36.9-2.9 60.9zM644.9 458.7c-3.2 3.7-2.9 9.3 0.8 12.6 1.7 1.5 3.8 2.2 5.9 2.2 2.5 0 4.9-1 6.7-3 26.6-30.5 27.6-50.6 3.9-83.1-13.7-18.7 8-46.9 8.4-47.4 3.1-3.8 2.4-9.4-1.4-12.5-3.8-3.1-9.5-2.4-12.5 1.4-1.3 1.6-30.7 39.3-8.9 69 18.6 25.5 18 36.8-2.9 60.8zM332 757.9c-0.4-1.6-0.9-3.2-1.4-4.8l48.8-12c40 28.4 116.7 50.6 189 50.6 23.4 0 46.4-2.3 67.5-7.5 82.9-20.3 116.7-80.4 94.9-169-14.3-58.3-43.2-94.1-86.1-106.6-71.8-20.9-168.4 31.5-232.3 92.7-23.9 22.9-41.5 45.2-51.6 64.8l-48.8 12c-0.3-1.6-0.6-3.3-1-4.9-3.6-14.7-12.7-27.1-25.6-35-12.9-7.8-28.2-10.2-42.8-6.6-30.3 7.4-48.9 38.2-41.5 68.5 4.1 16.6 15.4 30.2 30.4 37.5-9.9 13.3-13.7 30.7-9.6 47.3 6.3 25.8 29.5 43.1 55 43.1 4.4 0 9-0.5 13.5-1.6 30.4-7.4 49.1-38.1 41.6-68.5z m92.9-143.7c51.3-49.2 124.2-92.6 184.8-92.6 10.5 0 20.6 1.3 30.2 4.1 36.3 10.6 61.1 42.1 73.8 93.7 24.4 99.3-31.1 135-81.9 147.5-83.6 20.5-199.2-8.7-244-41.2-0.8-0.9-1.7-1.5-2.7-2-8.5-6.7-14.1-13.4-15.7-19.9-3.4-14.2 12.4-48.3 55.5-89.6zM310.4 751.6c2 3.3 3.4 6.8 4.3 10.6 5.1 20.8-7.7 41.8-28.5 46.9-20.8 5.1-41.8-7.7-46.9-28.5-3.7-14.9 1.9-30.6 14.1-40 2.8-2.1 4.1-5.7 3.2-9.2-0.8-3.4-3.6-6-7.1-6.6-15.2-2.7-27.3-14-31-29-5.1-20.8 7.7-41.8 28.5-46.9 10.1-2.5 20.5-0.9 29.4 4.5 8.9 5.4 15.1 13.9 17.6 24 0.9 3.8 1.3 7.6 1.1 11.4-0.2 2.8 1 5.5 3.2 7.3 2.2 1.8 5.1 2.5 7.8 1.8l47-11.5c-2 8-2.4 15.3-0.8 21.6 1.6 6.3 5.3 12.6 10.8 18.8L316 738.3c-2.7 0.7-5 2.6-6.1 5.2-1.1 2.7-0.9 5.7 0.5 8.1z"  /><path fill="#ffffff" d="M580.4 569.8c0.4-0.2 43-15.5 74.3 13.7 1.7 1.6 3.9 2.4 6.1 2.4 2.4 0 4.7-0.9 6.5-2.8 3.4-3.6 3.2-9.2-0.4-12.6-39.2-36.7-90.5-18.2-92.7-17.4-4.6 1.7-7 6.8-5.2 11.5 1.7 4.5 6.8 6.9 11.4 5.2zM517.6 589.4c1 0 2-0.2 3-0.5l26.7-9.6c4.6-1.7 7-6.8 5.3-11.4-1.7-4.6-6.8-7-11.4-5.3l-26.7 9.6c-4.6 1.7-7 6.8-5.3 11.4 1.4 3.6 4.8 5.8 8.4 5.8z"  /></svg>