<?xml version="1.0" standalone="no"?><!DOCTYPE svg PUBLIC "-//W3C//DTD SVG 1.1//EN" "http://www.w3.org/Graphics/SVG/1.1/DTD/svg11.dtd"><svg class="icon" width="200px" height="200.00px" viewBox="0 0 1024 1024" version="1.1" xmlns="http://www.w3.org/2000/svg"><path fill="#ffffff" d="M897.81651 869.980412l-26.301019-593.461523c-0.511693-43.800919-36.43254-79.312413-80.540476-79.312413H657.320808C646.472916 127.206876 585.376774 72.251049 511.897661 72.251049s-134.575255 55.058165-145.423146 124.955427H233.024985c-44.107935 0-80.131121 35.511493-80.540476 79.312413l-26.301019 593.461523v1.535079c0 44.312612 36.125525 80.335799 80.540476 80.335798h610.44973c44.414951 0 80.540476-36.023186 80.540475-80.335798 0.102339-0.511693 0.102339-1.023386 0.102339-1.535079zM511.897661 140.613232c35.613832 0 65.701379 23.844893 75.423546 56.490906H436.474116c9.619828-32.543674 39.809714-56.490905 75.423545-56.490906z m305.378373 742.875875H206.826304c-6.652009 0-11.871277-5.014591-12.178293-11.461923l26.198681-593.052169V277.337597c0-6.54967 5.321607-11.768939 12.075954-11.768938H364.325405v125.057765c0 18.93264 15.248451 34.181091 34.181091 34.181091s34.181091-15.35079 34.181091-34.181091V265.568659h157.499101v125.057765c0 18.93264 15.248451 34.181091 34.181091 34.181091s34.181091-15.35079 34.181092-34.181091V265.568659h132.221467c6.856686 0 12.178293 5.219268 12.178293 11.768938v1.535079l26.301019 593.154508c-0.102339 6.447332-5.423946 11.461923-11.973616 11.461923z"  /></svg>